# xmcd
#
# Track frame offsets:
#	150
#	15892
#	33675
#	48890
#	66122
#	82812
#	101515
#	123680
#	138507
#	156207
#	171315
#
# Disc length: 2493 seconds
#
# Revision: 1
# Processed by: cddbd v1.5.1PL0 Copyright (c) Steve Scherf et al.
# Submitted via: CDex 1.50Beta5
#
DISCID=8909bb0b
DTITLE=渡辺真知子 - フォグランプ
DYEAR=1991
DGENRE=Pop
TTITLE0=オーバーチュア
TTITLE1=今夜は踊って
TTITLE2=ブルー
TTITLE3=赤い服
TTITLE4=今はどのあたり
TTITLE5=フォグランプ
TTITLE6=予告篇
TTITLE7=光るメロディー
TTITLE8=少しはまだ悲しいけれど
TTITLE9=黒い天使
TTITLE10=ミッド・ナイト
EXTD=
EXTT0=
EXTT1=
EXTT2=
EXTT3=
EXTT4=
EXTT5=
EXTT6=
EXTT7=
EXTT8=
EXTT9=
EXTT10=
PLAYORDER=
